<?xml version="1.0" encoding="UTF-8"?>
<svg width="160px" height="160px" viewBox="0 0 160 160" version="1.1" xmlns="http://www.w3.org/2000/svg" xmlns:xlink="http://www.w3.org/1999/xlink">
    <!-- Generator: Sketch 43.2 (39069) - http://www.bohemiancoding.com/sketch -->
    <title>sdg-8</title>
    <desc>Created with Sketch.</desc>
    <defs></defs>
    <g id="Page-1" stroke="none" stroke-width="1" fill="none" fill-rule="evenodd">
        <g id="sdg-8">
            <g id="SDG-icon-8">
                <rect id="Rectangle-path" x="-1.13361154e-13" y="0" width="160" height="160"></rect>
                <g id="Group-27" transform="translate(41.000000, 39.000000)" fill-rule="nonzero" fill="#FFFFFF">
                    <path d="M70.16,19.759 L53.804,35.318 C53.186,35.933 52.87,36.385 52.87,37.655 L52.87,81.264 C52.87,81.776 53.288,82.194 53.804,82.194 L70.699,82.194 C71.214,82.194 71.63,81.776 71.63,81.264 L71.63,20.151 C71.63,19.637 71.227,18.697 70.16,19.759" id="Shape"></path>
                    <path d="M23.039,40.03 L6.681,55.588 C6.065,56.203 5.748,56.654 5.748,57.923 L5.748,81.263 C5.748,81.773 6.167,82.192 6.681,82.192 L23.577,82.192 C24.093,82.192 24.509,81.773 24.509,81.263 L24.509,40.421 C24.509,39.905 24.103,38.964 23.039,40.03" id="Shape"></path>
                    <path d="M77.595,0.89 C77.601,0.766 77.557,0.633 77.456,0.536 C77.37,0.452 77.26,0.412 77.154,0.403 L77.064,0.409 L76.93,0.416 L64.406,3.242 L64.178,3.265 C64.088,3.283 64.003,3.328 63.934,3.393 C63.749,3.579 63.749,3.88 63.934,4.067 L64.075,4.208 L66.936,7.068 L38.556,35.448 L25.449,22.339 C25.3,22.19 25.065,22.19 24.915,22.339 L21.359,25.897 C21.356,25.897 21.356,25.901 21.356,25.901 L0.344,46.909 C0.199,47.057 0.199,47.297 0.344,47.443 L3.906,51.002 C4.051,51.15 4.288,51.15 4.435,51.002 L25.185,30.257 L34.697,39.77 C34.706,39.785 34.711,39.8 34.727,39.815 L38.285,43.368 C38.432,43.518 38.669,43.518 38.818,43.368 L71.027,11.16 L74.031,14.161 C74.215,14.348 74.516,14.348 74.699,14.161 C74.786,14.074 74.829,13.966 74.835,13.853 L74.837,13.813 L77.588,1.028 L77.595,0.89 Z" id="Shape"></path>
                    <path d="M46.692,42.761 L38.778,50.74 C38.627,50.864 38.408,50.861 38.268,50.721 L31.098,43.412 C29.786,42.105 29.502,43.165 29.502,43.679 L29.502,81.262 C29.502,81.774 29.915,82.193 30.428,82.193 L47.329,82.193 C47.84,82.193 48.258,81.774 48.258,81.262 L48.258,43.056 C48.258,42.542 47.853,41.599 46.692,42.761" id="Shape"></path>
                </g>
            </g>
        </g>
    </g>
</svg>